Coordinates
version=1
nRows=9
nColumns=63
inDegrees=yes

Units are S.I. units (second, meters, Newtons, ...)
If the header above contains a line with 'inDegrees', this indicates whether rotational values are in degrees (yes) or radians (no).

endheader
time	pelvis_tilt	pelvis_list	pelvis_rotation	pelvis_tx	pelvis_ty	pelvis_tz	hip_flexion_r	hip_adduction_r	hip_rotation_r	knee_angle_r	knee_angle_r_beta	ankle_angle_r	subtalar_angle_r	mtp_angle_r	hip_flexion_l	hip_adduction_l	hip_rotation_l	knee_angle_l	knee_angle_l_beta	ankle_angle_l	subtalar_angle_l	mtp_angle_l	L5_S1_Flex_Ext	L5_S1_Lat_Bending	L5_S1_axial_rotation	L4_L5_Flex_Ext	L4_L5_Lat_Bending	L4_L5_axial_rotation	L3_L4_Flex_Ext	L3_L4_Lat_Bending	L3_L4_axial_rotation	L2_L3_Flex_Ext	L2_L3_Lat_Bending	L2_L3_axial_rotation	L1_L2_Flex_Ext	L1_L2_Lat_Bending	L1_L2_axial_rotation	L1_T12_Flex_Ext	L1_T12_Lat_Bending	L1_T12_axial_rotation	Abs_r3	Abs_r2	Abs_r1	Abs_t1	Abs_t2	neck_flexion	neck_bending	neck_rotation	arm_flex_r	arm_add_r	arm_rot_r	elbow_flex_r	pro_sup_r	wrist_flex_r	wrist_dev_r	arm_flex_l	arm_add_l	arm_rot_l	elbow_flex_l	pro_sup_l	wrist_flex_l	wrist_dev_l
      1.27118644	     17.40052150	     -2.43124106	     80.61583899	      0.27948996	      0.95375119	      0.55452667	     -5.65976708	     13.29064278	     23.40729392	      7.28431704	      0.12713532	     34.10571136	     -4.05053563	      0.00000000	     -8.15329518	    -15.21659562	    -18.07009878	      8.64195928	      0.15083064	     41.03366495	      0.98947124	      0.00000000	     -0.05672089	      1.94442240	      0.86245441	     -0.10533637	      2.58608179	      0.91635781	     -0.09318675	      4.72766861	      0.91635781	     -0.06482631	      4.72766861	      0.75464761	     -0.05267102	      3.96506615	      0.70074421	     -0.03241032	      3.01191029	      0.64684080	     -0.40515165	     21.99569503	      4.79671267	      0.00000000	      0.00000000	     17.48391451	    -11.43514796	     24.88915303	      5.12274380	    -16.84180745	    123.76773836	     11.10750335	      6.04597462	     -5.52724693	    -15.63840155	     21.93479396	     -0.96222369	    -10.75012889	    149.59871998	     82.36264350	     -8.65210348	     -2.64132673
      1.28813559	     17.55681359	     -2.97586757	     81.01445654	      0.27952069	      0.95294259	      0.55308721	     -5.14714789	     13.55240102	     23.10901306	      7.18494633	      0.12540097	     34.20737574	     -3.76055125	      0.00000000	     -7.66415899	    -15.50076495	    -17.75207682	      8.45363080	      0.14754369	     41.05484760	      1.07869755	      0.00000000	     -0.02667913	      1.96695192	      0.43344214	     -0.04954581	      2.61604606	      0.46053227	     -0.04383114	      4.78244691	      0.46053227	     -0.03049157	      4.78244691	      0.37926187	     -0.02477424	      4.01100837	      0.35217174	     -0.01524445	      3.04680853	      0.32508160	     -0.19056633	     22.25055357	      2.41067513	      0.00000000	      0.00000000	     18.47620269	    -10.69200445	     27.15893294	      6.07521371	    -16.80579872	    125.25494294	     11.44825704	      6.40935979	     -5.54602575	    -15.48064353	     18.79946710	     -1.52503526	    -13.36936203	    149.36529152	     79.98553358	     -9.21418929	     -1.48568447
      1.30508475	     17.70682057	     -3.49307889	     80.99498504	      0.27992610	      0.95218804	      0.55186487	     -4.74301740	     13.74175282	     23.34545400	      6.97705395	      0.12177256	     34.34910680	     -3.35378719	      0.00000000	     -7.37815062	    -15.69245778	    -17.76964700	      8.17212069	      0.14263041	     41.00596449	      1.03141291	      0.00000000	      0.00745569	      1.98238057	      0.16525382	      0.01384595	      2.63656616	      0.17558219	      0.01224895	      4.81996011	      0.17558219	      0.00852110	      4.81996011	      0.14459709	      0.00692335	      4.04247046	      0.13426873	      0.00426018	      3.07070750	      0.12394037	      0.05325522	     22.42508547	      0.91909218	      0.00000000	      0.00000000	     19.41900793	    -10.37854338	     28.02698303	      6.73478861	    -16.85951908	    125.48555456	     11.92532231	      6.71503779	     -5.38073189	    -15.43626619	     15.25688275	     -1.81397310	    -15.40685183	    148.86185849	     78.22163728	    -10.13273192	     -0.24077707
      1.32203390	     17.82491188	     -3.75921761	     81.22708489	      0.28035234	      0.95146237	      0.55119447	     -4.53054025	     13.91940349	     23.60690347	      6.74528107	      0.11772736	     34.53439241	     -3.26118198	      0.00000000	     -7.06026220	    -15.93838129	    -17.60750520	      8.25276234	      0.14403788	     41.17277846	      1.12545331	      0.00000000	      0.01685716	      1.98315898	     -0.05362569	      0.03130543	      2.63760144	     -0.05697729	      0.02769463	      4.82185274	     -0.05697729	      0.01926605	      4.82185274	     -0.04692248	      0.01565356	      4.04405779	     -0.04357087	      0.00963218	      3.07191326	     -0.04021927	      0.12040901	     22.43389101	     -0.29824999	      0.00000000	      0.00000000	     20.11596099	     -9.76588702	     28.63638298	      7.22837016	    -16.76509082	    125.57568438	     12.15082237	      6.87313946	     -5.18066110	    -15.37120035	     11.38657572	     -1.89546707	    -17.28097321	    148.17967584	     76.98700192	    -10.93859452	      1.03882687
      1.33898305	     17.89553853	     -3.83391267	     81.24096198	      0.28124851	      0.95085596	      0.55142025	     -4.43531653	     14.04273221	     23.81498257	      6.64482741	      0.11597412	     34.82414377	     -2.99423576	      0.00000000	     -6.87492872	    -16.12704471	    -17.57173220	      8.51122252	      0.14854886	     41.40783285	      1.04849267	      0.00000000	     -0.00296366	      1.96108544	     -0.11167403	     -0.00550382	      2.60824364	     -0.11865365	     -0.00486900	      4.76818315	     -0.11865365	     -0.00338717	      4.76818315	     -0.09771477	     -0.00275206	      3.99904543	     -0.09073515	     -0.00169344	      3.03772135	     -0.08375552	     -0.02116915	     22.18419075	     -0.62109743	      0.00000000	      0.00000000	     20.84828029	     -9.28848007	     27.45496595	      7.46382483	    -16.49064134	    125.18636763	     12.05645956	      7.14046534	     -5.19170882	    -15.24891961	      7.40051231	     -2.04078907	    -18.57945229	    146.96092259	     77.11013645	    -11.34866674	      1.14088458
      1.35593220	     17.72633654	     -4.00207507	     81.22400155	      0.28177508	      0.95006672	      0.55151443	     -4.39714519	     13.86854796	     24.42387384	      6.17907493	      0.10784520	     34.80660040	     -3.37018407	      0.00000000	     -6.54326921	    -16.05460589	    -17.59844622	      8.79699913	      0.15353660	     41.57655758	      1.11528985	      0.00000000	      0.01723973	      1.92294387	     -0.12116491	      0.03201590	      2.55751535	     -0.12873772	      0.02832315	      4.67544574	     -0.12873772	      0.01970329	      4.67544574	     -0.10601930	      0.01600881	      3.92126715	     -0.09844649	      0.00985078	      2.97864006	     -0.09087369	      0.12314165	     21.75272569	     -0.67388290	      0.00000000	      0.00000000	     21.56249975	     -9.90054269	     25.45235764	      7.60506313	    -16.41055349	    124.83914656	     12.23614733	      6.70186670	     -4.63213688	    -15.26147144	      2.95539962	     -2.10270754	    -19.93927700	    145.05462397	     80.42204831	    -11.46494734	     -0.31002873
      1.37288136	     17.73319920	     -3.78452069	     80.92502610	      0.28297689	      0.94975046	      0.55204421	     -4.96418304	     13.96508918	     28.93631309	      5.62878600	      0.09824085	     33.56916497	     -8.81399648	      0.00000000	     -6.67419878	    -16.15795334	    -18.22397447	      9.24686565	      0.16138825	     41.87593007	      1.45951955	      0.00000000	     -0.02247600	      1.88317453	      0.02829288	     -0.04174017	      2.50462212	      0.03006118	     -0.03692581	      4.57875055	      0.03006118	     -0.02568782	      4.57875055	      0.02475627	     -0.02087121	      3.84016950	      0.02298796	     -0.01284278	      2.91703734	      0.02121966	     -0.16054379	     21.30284689	      0.15735649	      0.00000000	      0.00000000	     22.10336520	    -10.27572632	     22.17808084	      7.43776132	    -16.03437999	    125.37022530	     11.76073854	      5.25878395	     -4.06444669	    -15.22339575	     -0.94336228	     -2.49225053	    -20.62295099	    141.63854422	     83.93709136	    -10.86891400	     -4.56174402
      1.38983051	     17.41553148	     -3.71154445	     80.77752679	      0.28356078	      0.94922534	      0.55279919	     -5.09105474	     13.59331528	     29.10273577	      5.33812541	      0.09316786	     33.63574422	     -8.80077534	      0.00000000	     -6.45818936	    -15.92186509	    -18.24704124	      9.75421818	      0.17024322	     42.01765157	      1.37035213	      0.00000000	     -0.03358980	      1.82239383	      0.13054237	     -0.06237961	      2.42378379	      0.13870127	     -0.05518468	      4.43096835	      0.13870127	     -0.03838978	      4.43096835	      0.11422458	     -0.03119149	      3.71622549	      0.10606568	     -0.01919321	      2.82288804	      0.09790678	     -0.23992856	     20.61528345	      0.72603752	      0.00000000	      0.00000000	     22.77675409	    -11.04298620	     19.09227647	      7.32395881	    -15.86216191	    124.52014707	     11.77233625	      4.97984606	     -3.74993082	    -14.90542162	     -4.67993224	     -3.06393837	    -21.61245116	    137.22815564	     85.57274721	     -9.81772508	    -10.13846718
      1.40677966	     17.21020333	     -3.60511024	     80.46679136	      0.28414481	      0.94897718	      0.55357501	     -5.28966989	     13.32060254	     29.48440724	      5.11946100	      0.08935145	     33.58452871	     -8.94269211	      0.00000000	     -6.33694657	    -15.77029456	    -18.37029575	     10.26426753	      0.17914526	     42.09704548	      1.17311975	      0.00000000	     -0.05769095	      1.78204232	      0.26405157	     -0.10713786	      2.37011629	      0.28055480	     -0.09478045	      4.33285770	      0.28055480	     -0.06593498	      4.33285770	      0.23104513	     -0.05357181	      3.63394070	      0.21454190	     -0.03296461	      2.76038355	      0.19803868	     -0.41208066	     20.15881913	      1.46857563	      0.00000000	      0.00000000	     23.44558584	    -11.89678395	     16.30676805	      7.09029751	    -15.76544010	    123.44592667	     11.67149311	      4.63635399	     -3.37385403	    -14.57955502	     -7.80302982	     -3.77699075	    -22.35591750	    131.93646957	     86.10466843	     -8.98258619	    -15.66203104
